<mxfile host="app.diagrams.net" modified="2024-06-19T06:04:25.080Z" agent="Mozilla/5.0 (Macintosh; Intel Mac OS X 10_15_7) AppleWebKit/537.36 (KHTML, like Gecko) Chrome/125.0.0.0 Safari/537.36" etag="HipIOZJ1-bGBiob2Qur3" version="24.5.5" type="github">
  <diagram name="第 1 页" id="OEkk2NK1DtaFm7Vaiwa0">
    <mxGraphModel dx="1434" dy="1842" grid="1" gridSize="10" guides="1" tooltips="1" connect="1" arrows="1" fold="1" page="1" pageScale="1" pageWidth="827" pageHeight="1169" math="0" shadow="0">
      <root>
        <mxCell id="0" />
        <mxCell id="1" parent="0" />
        <mxCell id="_38UN1bSElnnlys52ko4-5" value="&amp;nbsp; &amp;nbsp; &amp;nbsp; &amp;nbsp; &amp;nbsp; &amp;nbsp;&lt;b&gt;Keyowrd Refresh Task(Every 30 Minutes)&lt;/b&gt;" style="rounded=1;whiteSpace=wrap;html=1;align=left;verticalAlign=top;" parent="1" vertex="1">
          <mxGeometry x="80" y="370" width="805" height="230" as="geometry" />
        </mxCell>
        <mxCell id="u9_4qz7kyJqmKmEAL3j5-2" value="Landing Page Score Task" style="text;html=1;align=center;verticalAlign=middle;resizable=0;points=[];autosize=1;strokeColor=none;fillColor=none;" parent="1" vertex="1">
          <mxGeometry x="85" y="650" width="160" height="30" as="geometry" />
        </mxCell>
        <mxCell id="u9_4qz7kyJqmKmEAL3j5-25" value="&lt;b&gt;&amp;nbsp; &amp;nbsp; &amp;nbsp; &amp;nbsp; &amp;nbsp; &amp;nbsp;Landing Page&amp;nbsp;Score Task(Every 30 Minutes)&lt;/b&gt;" style="rounded=1;whiteSpace=wrap;html=1;align=left;verticalAlign=top;" parent="1" vertex="1">
          <mxGeometry x="80" y="700" width="805" height="240" as="geometry" />
        </mxCell>
        <mxCell id="u9_4qz7kyJqmKmEAL3j5-26" style="edgeStyle=orthogonalEdgeStyle;rounded=0;orthogonalLoop=1;jettySize=auto;html=1;exitX=1;exitY=0.5;exitDx=0;exitDy=0;entryX=0;entryY=0.5;entryDx=0;entryDy=0;" parent="1" source="u9_4qz7kyJqmKmEAL3j5-27" target="u9_4qz7kyJqmKmEAL3j5-29" edge="1">
          <mxGeometry relative="1" as="geometry" />
        </mxCell>
        <mxCell id="u9_4qz7kyJqmKmEAL3j5-27" value="Landing Page" style="rounded=1;whiteSpace=wrap;html=1;" parent="1" vertex="1">
          <mxGeometry x="102" y="820" width="90" height="30" as="geometry" />
        </mxCell>
        <mxCell id="u9_4qz7kyJqmKmEAL3j5-28" style="edgeStyle=orthogonalEdgeStyle;rounded=0;orthogonalLoop=1;jettySize=auto;html=1;exitX=1;exitY=0.5;exitDx=0;exitDy=0;entryX=0;entryY=0.5;entryDx=0;entryDy=0;" parent="1" source="u9_4qz7kyJqmKmEAL3j5-29" target="u9_4qz7kyJqmKmEAL3j5-34" edge="1">
          <mxGeometry relative="1" as="geometry" />
        </mxCell>
        <mxCell id="u9_4qz7kyJqmKmEAL3j5-29" value="GmtModified &amp;lt; Yestoday" style="rounded=1;whiteSpace=wrap;html=1;" parent="1" vertex="1">
          <mxGeometry x="227" y="820" width="90" height="30" as="geometry" />
        </mxCell>
        <mxCell id="u9_4qz7kyJqmKmEAL3j5-30" style="edgeStyle=orthogonalEdgeStyle;rounded=0;orthogonalLoop=1;jettySize=auto;html=1;exitX=0.75;exitY=0;exitDx=0;exitDy=0;entryX=0;entryY=0.5;entryDx=0;entryDy=0;" parent="1" source="u9_4qz7kyJqmKmEAL3j5-34" target="u9_4qz7kyJqmKmEAL3j5-37" edge="1">
          <mxGeometry relative="1" as="geometry" />
        </mxCell>
        <mxCell id="u9_4qz7kyJqmKmEAL3j5-31" style="edgeStyle=orthogonalEdgeStyle;rounded=0;orthogonalLoop=1;jettySize=auto;html=1;exitX=1;exitY=0.25;exitDx=0;exitDy=0;entryX=0;entryY=0.5;entryDx=0;entryDy=0;" parent="1" source="u9_4qz7kyJqmKmEAL3j5-34" target="u9_4qz7kyJqmKmEAL3j5-44" edge="1">
          <mxGeometry relative="1" as="geometry" />
        </mxCell>
        <mxCell id="u9_4qz7kyJqmKmEAL3j5-32" style="edgeStyle=orthogonalEdgeStyle;rounded=0;orthogonalLoop=1;jettySize=auto;html=1;exitX=1;exitY=0.75;exitDx=0;exitDy=0;entryX=0;entryY=0.5;entryDx=0;entryDy=0;" parent="1" source="u9_4qz7kyJqmKmEAL3j5-34" target="u9_4qz7kyJqmKmEAL3j5-46" edge="1">
          <mxGeometry relative="1" as="geometry" />
        </mxCell>
        <mxCell id="u9_4qz7kyJqmKmEAL3j5-33" style="edgeStyle=orthogonalEdgeStyle;rounded=0;orthogonalLoop=1;jettySize=auto;html=1;exitX=0.75;exitY=1;exitDx=0;exitDy=0;entryX=0;entryY=0.5;entryDx=0;entryDy=0;" parent="1" source="u9_4qz7kyJqmKmEAL3j5-34" target="u9_4qz7kyJqmKmEAL3j5-48" edge="1">
          <mxGeometry relative="1" as="geometry" />
        </mxCell>
        <mxCell id="u9_4qz7kyJqmKmEAL3j5-34" value="Limit N(1000)" style="rounded=1;whiteSpace=wrap;html=1;" parent="1" vertex="1">
          <mxGeometry x="352" y="820" width="90" height="30" as="geometry" />
        </mxCell>
        <mxCell id="u9_4qz7kyJqmKmEAL3j5-35" style="edgeStyle=orthogonalEdgeStyle;rounded=0;orthogonalLoop=1;jettySize=auto;html=1;exitX=1;exitY=0.75;exitDx=0;exitDy=0;entryX=0.25;entryY=0;entryDx=0;entryDy=0;" parent="1" source="u9_4qz7kyJqmKmEAL3j5-37" target="u9_4qz7kyJqmKmEAL3j5-40" edge="1">
          <mxGeometry relative="1" as="geometry" />
        </mxCell>
        <mxCell id="u9_4qz7kyJqmKmEAL3j5-37" value="Query Product Num" style="rounded=1;whiteSpace=wrap;html=1;" parent="1" vertex="1">
          <mxGeometry x="479" y="751" width="90" height="30" as="geometry" />
        </mxCell>
        <mxCell id="u9_4qz7kyJqmKmEAL3j5-40" value="Refresh Score" style="rounded=1;whiteSpace=wrap;html=1;fillColor=#f8cecc;strokeColor=#b85450;" parent="1" vertex="1">
          <mxGeometry x="625" y="820" width="90" height="30" as="geometry" />
        </mxCell>
        <mxCell id="u9_4qz7kyJqmKmEAL3j5-43" style="edgeStyle=orthogonalEdgeStyle;rounded=0;orthogonalLoop=1;jettySize=auto;html=1;exitX=1;exitY=0.5;exitDx=0;exitDy=0;entryX=0;entryY=0.25;entryDx=0;entryDy=0;" parent="1" source="u9_4qz7kyJqmKmEAL3j5-44" target="u9_4qz7kyJqmKmEAL3j5-40" edge="1">
          <mxGeometry relative="1" as="geometry" />
        </mxCell>
        <mxCell id="u9_4qz7kyJqmKmEAL3j5-44" value="Query Dummy Images" style="rounded=1;whiteSpace=wrap;html=1;" parent="1" vertex="1">
          <mxGeometry x="479" y="794" width="90" height="30" as="geometry" />
        </mxCell>
        <mxCell id="u9_4qz7kyJqmKmEAL3j5-45" style="edgeStyle=orthogonalEdgeStyle;rounded=0;orthogonalLoop=1;jettySize=auto;html=1;exitX=1;exitY=0.5;exitDx=0;exitDy=0;entryX=0;entryY=0.75;entryDx=0;entryDy=0;" parent="1" source="u9_4qz7kyJqmKmEAL3j5-46" target="u9_4qz7kyJqmKmEAL3j5-40" edge="1">
          <mxGeometry relative="1" as="geometry" />
        </mxCell>
        <mxCell id="u9_4qz7kyJqmKmEAL3j5-46" value="Query Keyword Times" style="rounded=1;whiteSpace=wrap;html=1;" parent="1" vertex="1">
          <mxGeometry x="479" y="844" width="90" height="30" as="geometry" />
        </mxCell>
        <mxCell id="u9_4qz7kyJqmKmEAL3j5-47" style="edgeStyle=orthogonalEdgeStyle;rounded=0;orthogonalLoop=1;jettySize=auto;html=1;exitX=1;exitY=0.5;exitDx=0;exitDy=0;entryX=0.25;entryY=1;entryDx=0;entryDy=0;" parent="1" source="u9_4qz7kyJqmKmEAL3j5-48" target="u9_4qz7kyJqmKmEAL3j5-40" edge="1">
          <mxGeometry relative="1" as="geometry" />
        </mxCell>
        <mxCell id="u9_4qz7kyJqmKmEAL3j5-48" value="Query Internal Links" style="rounded=1;whiteSpace=wrap;html=1;" parent="1" vertex="1">
          <mxGeometry x="479" y="894" width="90" height="30" as="geometry" />
        </mxCell>
        <mxCell id="_38UN1bSElnnlys52ko4-3" value="Keyword Refresh Task" style="text;html=1;align=center;verticalAlign=middle;resizable=0;points=[];autosize=1;strokeColor=none;fillColor=none;" parent="1" vertex="1">
          <mxGeometry x="80" y="320" width="140" height="30" as="geometry" />
        </mxCell>
        <mxCell id="_38UN1bSElnnlys52ko4-7" value="Keyword Import" style="rounded=1;whiteSpace=wrap;html=1;" parent="1" vertex="1">
          <mxGeometry x="175" y="70" width="90" height="30" as="geometry" />
        </mxCell>
        <mxCell id="_38UN1bSElnnlys52ko4-12" value="Query Product List" style="rounded=1;whiteSpace=wrap;html=1;" parent="1" vertex="1">
          <mxGeometry x="380" y="140" width="90" height="30" as="geometry" />
        </mxCell>
        <mxCell id="_38UN1bSElnnlys52ko4-13" value="Magellan Platform" style="ellipse;whiteSpace=wrap;html=1;" parent="1" vertex="1">
          <mxGeometry x="380" y="200" width="110" height="40" as="geometry" />
        </mxCell>
        <mxCell id="_38UN1bSElnnlys52ko4-35" style="edgeStyle=orthogonalEdgeStyle;rounded=0;orthogonalLoop=1;jettySize=auto;html=1;exitX=1;exitY=0.5;exitDx=0;exitDy=0;entryX=0.5;entryY=0;entryDx=0;entryDy=0;" parent="1" source="_38UN1bSElnnlys52ko4-14" edge="1">
          <mxGeometry relative="1" as="geometry">
            <mxPoint x="785" y="503.5" as="targetPoint" />
          </mxGeometry>
        </mxCell>
        <mxCell id="_38UN1bSElnnlys52ko4-14" value="Get Product Num" style="rounded=1;whiteSpace=wrap;html=1;" parent="1" vertex="1">
          <mxGeometry x="620" y="460.5" width="90" height="30" as="geometry" />
        </mxCell>
        <mxCell id="_38UN1bSElnnlys52ko4-15" style="edgeStyle=orthogonalEdgeStyle;rounded=0;orthogonalLoop=1;jettySize=auto;html=1;exitX=1;exitY=0.5;exitDx=0;exitDy=0;entryX=0;entryY=0.5;entryDx=0;entryDy=0;" parent="1" source="_38UN1bSElnnlys52ko4-16" target="_38UN1bSElnnlys52ko4-19" edge="1">
          <mxGeometry relative="1" as="geometry" />
        </mxCell>
        <mxCell id="_38UN1bSElnnlys52ko4-16" value="GmtModified &amp;lt; Yestoday" style="rounded=1;whiteSpace=wrap;html=1;" parent="1" vertex="1">
          <mxGeometry x="238" y="460.5" width="90" height="30" as="geometry" />
        </mxCell>
        <mxCell id="_38UN1bSElnnlys52ko4-18" style="edgeStyle=orthogonalEdgeStyle;rounded=0;orthogonalLoop=1;jettySize=auto;html=1;exitX=0.5;exitY=0;exitDx=0;exitDy=0;entryX=0;entryY=0.5;entryDx=0;entryDy=0;" parent="1" source="_38UN1bSElnnlys52ko4-19" target="_38UN1bSElnnlys52ko4-21" edge="1">
          <mxGeometry relative="1" as="geometry" />
        </mxCell>
        <mxCell id="_38UN1bSElnnlys52ko4-19" value="Limit N(1000)" style="rounded=1;whiteSpace=wrap;html=1;" parent="1" vertex="1">
          <mxGeometry x="365" y="460.5" width="90" height="30" as="geometry" />
        </mxCell>
        <mxCell id="_38UN1bSElnnlys52ko4-20" style="edgeStyle=orthogonalEdgeStyle;rounded=0;orthogonalLoop=1;jettySize=auto;html=1;exitX=1;exitY=0.5;exitDx=0;exitDy=0;entryX=0;entryY=0.5;entryDx=0;entryDy=0;" parent="1" source="_38UN1bSElnnlys52ko4-21" target="_38UN1bSElnnlys52ko4-22" edge="1">
          <mxGeometry relative="1" as="geometry" />
        </mxCell>
        <mxCell id="_38UN1bSElnnlys52ko4-21" value="Query Synonyms" style="rounded=1;whiteSpace=wrap;html=1;" parent="1" vertex="1">
          <mxGeometry x="493" y="410.5" width="90" height="30" as="geometry" />
        </mxCell>
        <mxCell id="_38UN1bSElnnlys52ko4-22" value="Refresh Synonyms" style="rounded=1;whiteSpace=wrap;html=1;" parent="1" vertex="1">
          <mxGeometry x="620" y="410.5" width="90" height="30" as="geometry" />
        </mxCell>
        <mxCell id="_38UN1bSElnnlys52ko4-36" style="edgeStyle=orthogonalEdgeStyle;rounded=0;orthogonalLoop=1;jettySize=auto;html=1;exitX=1;exitY=0.5;exitDx=0;exitDy=0;entryX=0;entryY=0.5;entryDx=0;entryDy=0;" parent="1" source="_38UN1bSElnnlys52ko4-23" edge="1">
          <mxGeometry relative="1" as="geometry">
            <mxPoint x="740" y="518.5" as="targetPoint" />
          </mxGeometry>
        </mxCell>
        <mxCell id="_38UN1bSElnnlys52ko4-23" value="Calculate Dummy Images" style="rounded=1;whiteSpace=wrap;html=1;" parent="1" vertex="1">
          <mxGeometry x="620" y="503.5" width="90" height="30" as="geometry" />
        </mxCell>
        <mxCell id="_38UN1bSElnnlys52ko4-37" style="edgeStyle=orthogonalEdgeStyle;rounded=0;orthogonalLoop=1;jettySize=auto;html=1;exitX=1;exitY=0.5;exitDx=0;exitDy=0;entryX=0.5;entryY=1;entryDx=0;entryDy=0;" parent="1" source="_38UN1bSElnnlys52ko4-24" edge="1">
          <mxGeometry relative="1" as="geometry">
            <mxPoint x="785" y="533.5" as="targetPoint" />
          </mxGeometry>
        </mxCell>
        <mxCell id="_38UN1bSElnnlys52ko4-24" value="Calculate Keyword Times" style="rounded=1;whiteSpace=wrap;html=1;" parent="1" vertex="1">
          <mxGeometry x="620" y="543.5" width="90" height="30" as="geometry" />
        </mxCell>
        <mxCell id="_38UN1bSElnnlys52ko4-38" value="Keyword Import Task" style="text;html=1;align=center;verticalAlign=middle;resizable=0;points=[];autosize=1;strokeColor=none;fillColor=none;" parent="1" vertex="1">
          <mxGeometry x="970" y="320" width="140" height="30" as="geometry" />
        </mxCell>
        <mxCell id="_38UN1bSElnnlys52ko4-39" value="&amp;nbsp; &amp;nbsp; &amp;nbsp; &amp;nbsp; &amp;nbsp; &amp;nbsp;&lt;b&gt;Keyowrd Import Task(Every Day)&lt;/b&gt;" style="rounded=1;whiteSpace=wrap;html=1;align=left;verticalAlign=top;" parent="1" vertex="1">
          <mxGeometry x="970" y="370" width="805" height="230" as="geometry" />
        </mxCell>
        <mxCell id="rbzPLPuLKjnH79Xls7Ae-2" value="&lt;div&gt;Landing Page&lt;/div&gt;Overall Score" style="rounded=0;whiteSpace=wrap;html=1;" vertex="1" parent="1">
          <mxGeometry x="100" y="-310" width="120" height="60" as="geometry" />
        </mxCell>
        <mxCell id="rbzPLPuLKjnH79Xls7Ae-3" value="&lt;div&gt;&lt;div&gt;Landing Page&lt;/div&gt;&lt;/div&gt;Score Detail" style="rounded=0;whiteSpace=wrap;html=1;" vertex="1" parent="1">
          <mxGeometry x="479" y="-310" width="120" height="60" as="geometry" />
        </mxCell>
        <mxCell id="rbzPLPuLKjnH79Xls7Ae-4" value="Landing Page Score Table" style="swimlane;fontStyle=0;childLayout=stackLayout;horizontal=1;startSize=30;horizontalStack=0;resizeParent=1;resizeParentMax=0;resizeLast=0;collapsible=1;marginBottom=0;whiteSpace=wrap;html=1;" vertex="1" parent="1">
          <mxGeometry x="265" y="-200" width="155" height="210" as="geometry" />
        </mxCell>
        <mxCell id="rbzPLPuLKjnH79Xls7Ae-5" value="url" style="text;strokeColor=none;fillColor=none;align=left;verticalAlign=middle;spacingLeft=4;spacingRight=4;overflow=hidden;points=[[0,0.5],[1,0.5]];portConstraint=eastwest;rotatable=0;whiteSpace=wrap;html=1;" vertex="1" parent="rbzPLPuLKjnH79Xls7Ae-4">
          <mxGeometry y="30" width="155" height="30" as="geometry" />
        </mxCell>
        <mxCell id="rbzPLPuLKjnH79Xls7Ae-6" value="product num" style="text;strokeColor=none;fillColor=none;align=left;verticalAlign=middle;spacingLeft=4;spacingRight=4;overflow=hidden;points=[[0,0.5],[1,0.5]];portConstraint=eastwest;rotatable=0;whiteSpace=wrap;html=1;" vertex="1" parent="rbzPLPuLKjnH79Xls7Ae-4">
          <mxGeometry y="60" width="155" height="30" as="geometry" />
        </mxCell>
        <mxCell id="rbzPLPuLKjnH79Xls7Ae-7" value="relevence" style="text;strokeColor=none;fillColor=none;align=left;verticalAlign=middle;spacingLeft=4;spacingRight=4;overflow=hidden;points=[[0,0.5],[1,0.5]];portConstraint=eastwest;rotatable=0;whiteSpace=wrap;html=1;" vertex="1" parent="rbzPLPuLKjnH79Xls7Ae-4">
          <mxGeometry y="90" width="155" height="30" as="geometry" />
        </mxCell>
        <mxCell id="rbzPLPuLKjnH79Xls7Ae-8" value="keyword display times" style="text;strokeColor=none;fillColor=none;align=left;verticalAlign=middle;spacingLeft=4;spacingRight=4;overflow=hidden;points=[[0,0.5],[1,0.5]];portConstraint=eastwest;rotatable=0;whiteSpace=wrap;html=1;" vertex="1" parent="rbzPLPuLKjnH79Xls7Ae-4">
          <mxGeometry y="120" width="155" height="30" as="geometry" />
        </mxCell>
        <mxCell id="rbzPLPuLKjnH79Xls7Ae-9" value="internal link num" style="text;strokeColor=none;fillColor=none;align=left;verticalAlign=middle;spacingLeft=4;spacingRight=4;overflow=hidden;points=[[0,0.5],[1,0.5]];portConstraint=eastwest;rotatable=0;whiteSpace=wrap;html=1;" vertex="1" parent="rbzPLPuLKjnH79Xls7Ae-4">
          <mxGeometry y="150" width="155" height="30" as="geometry" />
        </mxCell>
        <mxCell id="rbzPLPuLKjnH79Xls7Ae-14" value="type(NORMAL+PSERP)" style="text;strokeColor=none;fillColor=none;align=left;verticalAlign=middle;spacingLeft=4;spacingRight=4;overflow=hidden;points=[[0,0.5],[1,0.5]];portConstraint=eastwest;rotatable=0;whiteSpace=wrap;html=1;" vertex="1" parent="rbzPLPuLKjnH79Xls7Ae-4">
          <mxGeometry y="180" width="155" height="30" as="geometry" />
        </mxCell>
        <mxCell id="rbzPLPuLKjnH79Xls7Ae-10" style="edgeStyle=orthogonalEdgeStyle;rounded=0;orthogonalLoop=1;jettySize=auto;html=1;exitX=0;exitY=0.5;exitDx=0;exitDy=0;entryX=0.5;entryY=1;entryDx=0;entryDy=0;" edge="1" parent="1" source="rbzPLPuLKjnH79Xls7Ae-7" target="rbzPLPuLKjnH79Xls7Ae-2">
          <mxGeometry relative="1" as="geometry" />
        </mxCell>
        <mxCell id="rbzPLPuLKjnH79Xls7Ae-11" value="Summary" style="edgeLabel;html=1;align=center;verticalAlign=middle;resizable=0;points=[];" vertex="1" connectable="0" parent="rbzPLPuLKjnH79Xls7Ae-10">
          <mxGeometry x="0.5385" y="-1" relative="1" as="geometry">
            <mxPoint as="offset" />
          </mxGeometry>
        </mxCell>
        <mxCell id="rbzPLPuLKjnH79Xls7Ae-12" style="edgeStyle=orthogonalEdgeStyle;rounded=0;orthogonalLoop=1;jettySize=auto;html=1;exitX=1;exitY=0.5;exitDx=0;exitDy=0;entryX=0.5;entryY=1;entryDx=0;entryDy=0;" edge="1" parent="1" source="rbzPLPuLKjnH79Xls7Ae-7" target="rbzPLPuLKjnH79Xls7Ae-3">
          <mxGeometry relative="1" as="geometry" />
        </mxCell>
        <mxCell id="rbzPLPuLKjnH79Xls7Ae-13" value="Query" style="edgeLabel;html=1;align=center;verticalAlign=middle;resizable=0;points=[];" vertex="1" connectable="0" parent="rbzPLPuLKjnH79Xls7Ae-12">
          <mxGeometry x="0.4526" y="-4" relative="1" as="geometry">
            <mxPoint as="offset" />
          </mxGeometry>
        </mxCell>
      </root>
    </mxGraphModel>
  </diagram>
</mxfile>
